# xmcd CD database file
#
# Track frame offsets:
#	183
#	28694
#	45920
#	59892
#	74709
#	89130
#	121459
#	141105
#	158679
#	176906
#	192615
#	209602
#	222513
#	241570
#	257202
#	278993
#	297697
#
# Disc length: 4179 seconds
#
# Revision: 0
# Processed by: cddbd v1.5.2PL0 Copyright (c) Steve Scherf et al.
# Submitted via: CDex 1.51
#
DISCID=23105111
DTITLE=Various Artist - Hot Salsa Festival
DYEAR=2008
DGENRE=Salsa
TTITLE0=Manuel Alfonso,  Aprovechalo
TTITLE1=Las Chicas Marques, Dulce Habanero
TTITLE2=Los gardenias, El Carnaval
TTITLE3=Los Marchosos, Por Que No
TTITLE4=Delores de Santos, Suavecito
TTITLE5=Las Chicas Marques,  Tanta Gente
TTITLE6=Carlos Heria, Buscando Un Amor
TTITLE7=Las Chicas Marques, La Unica
TTITLE8=Loas Gardinias, Tripita En La Habana
TTITLE9=Las Chicas Marques, Niche Sin Luna
TTITLE10=Raul Ramirez, Esta En Candela Mi Son
TTITLE11=Las Chicas Marques, Ritmo Tambor
TTITLE12=Los Gardinias, El Guau
TTITLE13=Los Marchosos, Con Alma Y Vida
TTITLE14=Emilio Campos, La Musica Y Yo
TTITLE15=Las Chicas Marques, Tu No Me Enganas
TTITLE16=Carlos Heria, Belle Ansi Di Amor
EXTD=YEAR: 2008
EXTT0=
EXTT1=
EXTT2=
EXTT3=
EXTT4=
EXTT5=
EXTT6=
EXTT7=
EXTT8=
EXTT9=
EXTT10=
EXTT11=
EXTT12=
EXTT13=
EXTT14=
EXTT15=
EXTT16=
PLAYORDER=
